<svg width="594" height="64" viewBox="0 0 594 64" fill="none" xmlns="http://www.w3.org/2000/svg">
<path d="M40.0306 47.2145V62.1448H0V2.29639H16.4127V47.2145H40.0306Z" fill="#1E1E1E"/>
<path d="M175.164 2.29639H198.487C211.207 2.29639 221.817 11.584 221.817 23.2831C221.817 34.839 211.436 44.5325 198.487 44.5325H191.552V62.1448H175.14L175.164 2.29639ZM205.979 23.3309C205.979 19.6859 202.836 16.964 198.47 16.964H191.536V29.8251H198.47C202.894 29.9046 205.979 27.0077 205.979 23.3309Z" fill="#1E1E1E"/>
<path d="M225.575 52.0453L235.521 42.6064C238.09 46.2833 242.907 48.5117 248.052 48.5117C251.532 48.5117 254.946 47.2861 254.946 44.8348C254.946 41.7549 248.627 39.041 242.571 36.4385C234.758 33.1755 228.054 28.1935 228.054 19.1685C228.054 8.82233 238.205 1.4129 249.923 1.4129C259.32 1.4129 266.705 5.71849 269.093 11.6237L259.632 20.4657C257.793 17.2823 253.066 15.9373 250.096 15.9373C246.723 15.9373 244.31 17.6086 244.31 19.646C244.31 22.3996 248.676 23.291 255.34 26.0128C264.99 29.9444 271.391 35.6666 271.391 44.5085C271.391 55.9132 260.436 63.0122 248.061 63.0122C237.909 63.0042 228.677 58.6589 225.575 52.0453Z" fill="#1E1E1E"/>
<path d="M321.196 17.1232H306.425V62.1448H290.012V17.1232H275.15V2.29639H321.196V17.1232Z" fill="#1E1E1E"/>
<path d="M327.639 39.5423V1.42877H344.15V39.5025C344.15 44.4846 348.549 47.7874 353.227 47.7874C357.904 47.7874 362.377 44.413 362.377 39.5025V1.42877H378.888V39.5423C378.888 53.2868 367.399 62.9803 353.268 62.9803C339.136 62.9803 327.639 53.2868 327.639 39.5423Z" fill="#1E1E1E"/>
<path d="M443.06 32.2842C443.06 50.8515 430.225 62.1447 409.233 62.1447H389.087V2.29629H409.233C430.225 2.19283 443.06 13.5577 443.06 32.2842ZM426.647 32.2842C426.647 22.8851 419.91 17.1629 408.84 17.1629H405.081V47.1746H408.987C419.918 47.1746 426.623 41.532 426.623 32.2444L426.647 32.2842Z" fill="#1E1E1E"/>
<path d="M451.11 2.29639H467.523V62.1448H451.11V2.29639Z" fill="#1E1E1E"/>
<path d="M475.55 32.316C475.55 14.3376 490.264 0.70459 509.45 0.70459C528.637 0.70459 543.351 14.3376 543.351 32.316C543.351 50.1512 528.645 63.7046 509.417 63.7046C490.19 63.7046 475.55 50.1512 475.55 32.316ZM526.766 32.2046C526.766 22.9886 519.257 15.8259 509.45 15.8259C499.644 15.8259 492.143 22.9886 492.143 32.2046C492.143 41.4206 499.644 48.5117 509.45 48.5117C519.257 48.5117 526.766 41.4206 526.766 32.2046Z" fill="#1E1E1E"/>
<path d="M548.184 52.0453L558.114 42.6064C560.674 46.2833 565.499 48.5117 570.637 48.5117C574.124 48.5117 577.53 47.2861 577.53 44.8348C577.53 41.7549 571.211 39.041 565.163 36.4385C557.342 33.1755 550.646 28.1935 550.646 19.1685C550.646 8.82233 560.797 1.4129 572.524 1.4129C581.937 1.4129 589.29 5.71849 591.678 11.6237L582.24 20.4657C580.402 17.2823 575.675 15.9373 572.705 15.9373C569.332 15.9373 566.96 17.6086 566.96 19.646C566.96 22.3996 571.326 23.291 577.99 26.0128C587.575 29.9364 594 35.6586 594 44.4767C594 55.8813 583.045 62.9804 570.678 62.9804C560.494 63.0042 551.294 58.6589 548.184 52.0453Z" fill="#1E1E1E"/>
<path d="M139.073 1.34937C126 1.34937 117.671 6.1245 111.286 12.6505C114.019 16.4627 116.604 20.4022 119.173 24.3098L120.855 26.8566C126.148 20.1714 130.637 17.6008 139.065 17.6008C142.831 17.6879 146.412 19.1998 149.043 21.8134C151.675 24.427 153.148 27.935 153.148 31.5879C153.148 35.2408 151.675 38.7489 149.043 41.3625C146.412 43.9761 142.831 45.488 139.065 45.5751C127.535 45.5751 123.383 40.8 114.446 27.2227C106.108 14.4969 97.467 1.34937 75.712 1.34937C67.4414 1.34937 59.5096 4.53562 53.6615 10.2072C47.8133 15.8788 44.5278 23.5711 44.5278 31.5919C44.5278 39.6127 47.8133 47.305 53.6615 52.9766C59.5096 58.6482 67.4414 61.8345 75.712 61.8345C88.7847 61.8345 97.1141 57.0593 103.499 50.5333C100.766 46.7132 98.1809 42.7817 95.6123 38.866L93.93 36.3193C88.6369 43.0125 84.1481 45.5751 75.712 45.5751C71.9464 45.488 68.3653 43.9761 65.7338 41.3625C63.1024 38.7489 61.6293 35.2408 61.6293 31.5879C61.6293 27.935 63.1024 24.427 65.7338 21.8134C68.3653 19.1998 71.9464 17.6879 75.712 17.6008C87.2008 17.6008 91.3943 22.3759 100.331 35.9532C108.685 48.6869 117.326 61.8345 139.081 61.8345C147.352 61.8345 155.284 58.6482 161.132 52.9766C166.98 47.305 170.265 39.6127 170.265 31.5919C170.265 23.5711 166.98 15.8788 161.132 10.2072C155.284 4.53562 147.352 1.34937 139.081 1.34937H139.073Z" fill="#1E1E1E"/>
</svg>
