<svg width="651" height="69" viewBox="0 0 651 69" fill="none" xmlns="http://www.w3.org/2000/svg">
<path d="M43.843 50.9397V67.2919H0V1.74365H17.9758V50.9397H43.843Z" fill="#D9D9D9"/>
<path d="M191.847 1.74365H217.39C231.322 1.74365 242.943 11.9158 242.943 24.7291C242.943 37.3855 231.573 48.0022 217.39 48.0022H209.796V67.2919H191.82L191.847 1.74365ZM225.596 24.7814C225.596 20.7893 222.154 17.8082 217.372 17.8082H209.778V31.8941H217.372C222.217 31.9813 225.596 28.8085 225.596 24.7814Z" fill="#D9D9D9"/>
<path d="M247.059 56.2304L257.952 45.8926C260.765 49.9196 266.041 52.3603 271.676 52.3603C275.487 52.3603 279.226 51.0179 279.226 48.3332C279.226 44.9599 272.306 41.9876 265.673 39.1373C257.116 35.5635 249.773 30.107 249.773 20.2224C249.773 8.89096 260.891 0.775879 273.726 0.775879C284.017 0.775879 292.106 5.49152 294.721 11.9592L284.358 21.6432C282.345 18.1566 277.168 16.6835 273.914 16.6835C270.22 16.6835 267.578 18.514 267.578 20.7454C267.578 23.7614 272.36 24.7376 279.658 27.7187C290.227 32.0246 297.238 38.2918 297.238 47.9759C297.238 60.4666 285.239 68.2418 271.685 68.2418C260.567 68.2331 250.456 63.4738 247.059 56.2304Z" fill="#D9D9D9"/>
<path d="M351.786 17.9825H335.608V67.2919H317.632V17.9825H301.355V1.74365H351.786V17.9825Z" fill="#D9D9D9"/>
<path d="M358.843 42.5364V0.792969H376.926V42.4928C376.926 47.9494 381.744 51.5667 386.867 51.5667C391.99 51.5667 396.889 47.8709 396.889 42.4928V0.792969H414.972V42.5364C414.972 57.5898 402.389 68.2066 386.912 68.2066C371.435 68.2066 358.843 57.5898 358.843 42.5364Z" fill="#D9D9D9"/>
<path d="M485.256 34.5868C485.256 54.9225 471.199 67.2912 448.208 67.2912H426.143V1.74295H448.208C471.199 1.62964 485.256 14.0768 485.256 34.5868ZM467.28 34.5868C467.28 24.2926 459.901 18.0254 447.776 18.0254H443.66V50.8954H447.938C459.91 50.8954 467.253 44.7154 467.253 34.5432L467.28 34.5868Z" fill="#D9D9D9"/>
<path d="M494.073 1.74365H512.049V67.2919H494.073V1.74365Z" fill="#D9D9D9"/>
<path d="M520.84 34.622C520.84 14.9314 536.956 0 557.969 0C578.983 0 595.098 14.9314 595.098 34.622C595.098 54.1558 578.992 69 557.933 69C536.875 69 520.84 54.1558 520.84 34.622ZM576.934 34.5C576.934 24.4063 568.71 16.5614 557.969 16.5614C547.229 16.5614 539.014 24.4063 539.014 34.5C539.014 44.5937 547.229 52.3602 557.969 52.3602C568.71 52.3602 576.934 44.5937 576.934 34.5Z" fill="#D9D9D9"/>
<path d="M600.392 56.2304L611.267 45.8926C614.072 49.9196 619.357 52.3603 624.983 52.3603C628.803 52.3603 632.533 51.0179 632.533 48.3332C632.533 44.9599 625.612 41.9876 618.988 39.1373C610.423 35.5635 603.088 30.107 603.088 20.2224C603.088 8.89096 614.206 0.775879 627.05 0.775879C637.359 0.775879 645.412 5.49152 648.028 11.9592L637.692 21.6432C635.679 18.1566 630.502 16.6835 627.248 16.6835C623.554 16.6835 620.956 18.514 620.956 20.7454C620.956 23.7614 625.738 24.7376 633.036 27.7187C643.534 32.0159 650.572 38.2831 650.572 47.941C650.572 60.4318 638.573 68.2069 625.028 68.2069C613.874 68.2331 603.799 63.4738 600.392 56.2304Z" fill="#D9D9D9"/>
<path d="M152.318 0.705566C138 0.705566 128.878 5.93548 121.885 13.083C124.878 17.2582 127.709 21.5729 130.523 25.8527L132.365 28.642C138.162 21.3201 143.079 18.5047 152.309 18.5047C156.433 18.6001 160.356 20.256 163.238 23.1185C166.12 25.9811 167.733 29.8232 167.733 33.824C167.733 37.8248 166.12 41.6669 163.238 44.5295C160.356 47.392 156.433 49.0479 152.309 49.1433C139.681 49.1433 135.133 43.9134 125.346 29.043C116.214 15.1053 106.75 0.705566 82.9226 0.705566C73.8644 0.705566 65.1772 4.19528 58.772 10.407C52.3669 16.6187 48.7686 25.0436 48.7686 33.8284C48.7686 42.6131 52.3669 51.038 58.772 57.2497C65.1772 63.4614 73.8644 66.9511 82.9226 66.9511C97.2403 66.9511 106.363 61.7212 113.356 54.5737C110.363 50.3897 107.531 46.0838 104.718 41.7953L102.876 39.006C97.0785 46.3366 92.1622 49.1433 82.9226 49.1433C78.7984 49.0479 74.8762 47.392 71.9942 44.5295C69.1121 41.6669 67.4987 37.8248 67.4987 33.824C67.4987 29.8232 69.1121 25.9811 71.9942 23.1185C74.8762 20.256 78.7984 18.6001 82.9226 18.5047C95.5057 18.5047 100.098 23.7346 109.886 38.605C119.036 52.5514 128.5 66.9511 152.327 66.9511C161.385 66.9511 170.073 63.4614 176.478 57.2497C182.883 51.038 186.481 42.6131 186.481 33.8284C186.481 25.0436 182.883 16.6187 176.478 10.407C170.073 4.19528 161.385 0.705566 152.327 0.705566H152.318Z" fill="#D9D9D9"/>
</svg>
